<svg xmlns="http://www.w3.org/2000/svg" width="494.795" height="564" viewBox="0 0 494.795 564">
  <g id="barzinho" transform="translate(-2315.425 -5678.78)">
    <g id="_1174251202416" transform="translate(2245 5677.78)">
      <path id="Caminho_54" data-name="Caminho 54" d="M10712.4,12222.187q61.777.1,123.559,0c42.49,0,35.315-.289,35.315-88.284q0-123.593,0-247.187H10712.39l.013,335.468Z" transform="translate(-10447.523 -11692.499)" fill="#f8be2c" fill-rule="evenodd"/>
      <path id="Caminho_55" data-name="Caminho 55" d="M5790.485,12222.157l-.013-335.467H5631.54l0,308.986c-.078,27.868,9.838,26.478,35.313,26.477Q5728.669,12222.151,5790.485,12222.157Z" transform="translate(-5525.606 -11692.47)" fill="#fbd734" fill-rule="evenodd"/>
      <path id="Caminho_56" data-name="Caminho 56" d="M4524.882,8421.4h165.957l.009-35.313q-61.812-.1-123.629,0c-25.475,0-35.391,1.392-35.313-26.477l0-308.986-.011-105.953,158.935.008.047-17.614c-14.28.17-171.7-1.008-179.677.362-17.114,2.939-14.536,21.853-14.533,30.5v401.679c0,12.868-1.707,30.748,3.481,41.689a37.7,37.7,0,0,0,9.813,12.232C4516.357,8419.033,4520.742,8418.57,4524.882,8421.4Z" transform="translate(-4425.969 -7856.402)" fill="#cdd6da" fill-rule="evenodd"/>
      <path id="Caminho_57" data-name="Caminho 57" d="M10712.1,7948.092l158.893.007,0,105.938q.063,123.593,0,247.187c0,88,7.175,88.284-35.315,88.284q-61.777,0-123.559,0l-.009,35.314h165.645c5.825-3.516,10.2-3.289,15.866-8.271a35.682,35.682,0,0,0,10.563-14.831c3.6-9.221,2.078-35.85,2.111-47.535V8054.048c-.074-26.485-.008-52.979-.008-79.464,0-10.532,2.4-28.639-3.074-36.646-6.482-9.477-18.331-7.5-32.313-7.475l-158.755.014Z" transform="translate(-10447.242 -7859.818)" fill="#afbdc3" fill-rule="evenodd"/>
      <path id="Caminho_58" data-name="Caminho 58" d="M16920.3,11939.938c63.092,0,52.988,25.65,52.988,97.121,0,71.788,10.08,97.12-52.988,97.12v52.946c41.543,0,71.963-7.3,93.547-43.3,9.771-16.293,12.035-25.783,12.4-34.335s.219-126.368,0-141.8-9.459-38.173-21.705-50.208-23.613-19.98-34.244-24.267c-15.414-6.217-31.715-6.229-50-6.229Z" transform="translate(-16461.246 -11692.764)" fill="#8fa3ad" fill-rule="evenodd"/>
      <path id="Caminho_59" data-name="Caminho 59" d="M5631.181,8605.464h158.934l-.009-105.946-158.935-.008Z" transform="translate(-5525.248 -8411.244)" fill="#fff" fill-rule="evenodd"/>
      <path id="Caminho_60" data-name="Caminho 60" d="M10712.108,8605.706h158.885V8499.768l-158.894-.008Z" transform="translate(-10447.242 -8411.486)" fill="#e6e6e6" fill-rule="evenodd"/>
    </g>
    <path id="Ret창ngulo_12" data-name="Ret창ngulo 12" d="M0,0H88a70,70,0,0,1,70,70v0a0,0,0,0,1,0,0H0a0,0,0,0,1,0,0V0A0,0,0,0,1,0,0Z" transform="translate(2510 5678.78)" fill="#e6e6e6"/>
    <path id="Ret창ngulo_13" data-name="Ret창ngulo 13" d="M70,0h88a0,0,0,0,1,0,0V70a0,0,0,0,1,0,0H0a0,0,0,0,1,0,0v0A70,70,0,0,1,70,0Z" transform="translate(2352 5678.78)" fill="#fff"/>
  </g>
</svg>
