<svg xmlns="http://www.w3.org/2000/svg" width="134.645" height="72.546" viewBox="0 0 134.645 72.546">
  <g id="Grupo_5322" data-name="Grupo 5322" transform="translate(-1571.499 -13104.108)">
    <g id="Grupo_5321" data-name="Grupo 5321" transform="translate(-7509 2353)">
      <path id="Caminho_22944" data-name="Caminho 22944" d="M30.8-1.312c16.79,0,18.432-.748,27.523,7.846s17.609,9.323,14.484,16.689-15.849,8.561-24.9,8.561C15.5,32.235,39.689,21,20.271,20.335S0,13.682,0,10.15C0,4.544,14.01-1.312,30.8-1.312Z" transform="translate(9080.499 10791.857)" fill="#d5ae37"/>
      <g id="Grupo_5317" data-name="Grupo 5317" transform="translate(9084.678 10747.85)">
        <path id="Caminho_22938" data-name="Caminho 22938" d="M21.061.478c11.837,0,24.4-3.534,24.7,8.617.8,7.717,6.11,9.21,1.965,10.173-6.1,1.418-24.027-2.175-31.129-2.175C4.76,17.093,0,13.6,0,9.1S9.224.478,21.061.478Z" transform="translate(129.441 58.182) rotate(-177)" fill="#aa6734"/>
        <path id="Caminho_22926" data-name="Caminho 22926" d="M29.455,1.327C46.01,1.327,63.583-8.486,64,25.256S39.767,47.464,23.212,47.464,0,37.765,0,25.256,12.9,1.327,29.455,1.327Z" transform="translate(42.81 11.458) rotate(-5)" fill="#aa6734"/>
        <path id="Caminho_22950" data-name="Caminho 22950" d="M29.455,1.327C46.01,1.327,63.583-8.486,64,25.256a41.522,41.522,0,0,1-5.228,3.659c-1.334.8-12.2-10.35-12.2-10.35A69.493,69.493,0,0,0,53.8,32.714C47.67,34.8,40.507,34.931,34.129,34.292c-.012-2.426-.18-2.147-.088-4.526-1.232,2.1-2.5,5.074-3.287,4.953a51.4,51.4,0,0,1-8.024-1.714c-.736-.215.856-11.578,1.915-13.7a63.66,63.66,0,0,1-8.5-2.024,30.253,30.253,0,0,0,5.381,3.731c-1.087,2.013-2.465,6.812-3.116,8.6C11.376,30.808,1.683,24.747.209,25,.209,12.5,12.9,1.327,29.455,1.327Z" transform="translate(42.81 11.458) rotate(-5)" fill="#bc7845"/>
        <path id="Caminho_22931" data-name="Caminho 22931" d="M14.849.381c8.346,0,17.2-2.816,17.414,6.866.562,6.149,4.308,7.338,1.385,8.105-4.3,1.13-16.939-1.733-21.947-1.733C3.356,13.619,0,10.836,0,7.247S6.5.381,14.849.381Z" transform="matrix(-0.899, -0.438, 0.438, -0.899, 70.785, 69.704)" fill="#aa6734"/>
        <g id="Grupo_5314" data-name="Grupo 5314" transform="translate(0 10.381) rotate(-5)">
          <circle id="Elipse_1559" data-name="Elipse 1559" cx="22.65" cy="22.65" r="22.65" transform="translate(2.311 2.903)" fill="#aa6734"/>
          <path id="Caminho_22949" data-name="Caminho 22949" d="M22.65,0A22.65,22.65,0,0,1,45.3,22.65c1.845,10.593-11.048,11.625-24.4,7.88-3.1.79-17.14-.511-20.634-11.364A22.584,22.584,0,0,1,22.65,0Z" transform="translate(2.311 2.903)" fill="#bc7845"/>
          <path id="Caminho_22922" data-name="Caminho 22922" d="M6,0c3.314,0,8.778,5.245,8.778,8.559S9.314,12,6,12A6,6,0,0,1,6,0Z" transform="translate(0.002 37.083)" fill="#aa6734"/>
          <path id="Caminho_22923" data-name="Caminho 22923" d="M6,12c3.314,0,8.778-5.245,8.778-8.559S9.314,0,6,0A6,6,0,1,0,6,12Z" transform="translate(3.508 0) rotate(17)" fill="#bc7845"/>
          <path id="Caminho_22924" data-name="Caminho 22924" d="M2.4,4.775C3.828,4.147,5.995,2.3,5.995.991S3.728.046,2.4.046A2.383,2.383,0,0,0,0,2.41C0,3.716.975,5.4,2.4,4.775Z" transform="translate(8.001 7.221) rotate(17)" fill="#482c25"/>
          <path id="Caminho_22925" data-name="Caminho 22925" d="M2.655,0C4.014,0,6.061,1.182,6.061,1.933s-2.241.78-3.6.78S0,2.1,0,1.353,1.3,0,2.655,0Z" transform="translate(8.21 38.815) rotate(32)" fill="#482c25"/>
        </g>
        <ellipse id="Elipse_1560" data-name="Elipse 1560" cx="9.731" cy="11.435" rx="9.731" ry="11.435" transform="translate(24.762 28.456) rotate(-5)" fill="#db9966"/>
        <path id="Caminho_22951" data-name="Caminho 22951" d="M9.731,0c5.374,0,9.731,5.12,9.731,11.435a14.045,14.045,0,0,1-.336,2.99C14.861,20.261,5.274,19.32.154,13.281A5.663,5.663,0,0,1,0,11.435C0,5.12,4.357,0,9.731,0Z" transform="translate(24.762 28.456) rotate(-5)" fill="#e4a87b"/>
        <path id="União_5" data-name="União 5" d="M0,45.215V28.392a6.842,6.842,0,0,1,1.522-4.313c-.656,0-1.2-.013-1.523-.03.042-2.355-.167-5.91,2.056-8.148a7.635,7.635,0,0,0,1.979-5.848c.017-.681.087-3.878.124-6.2A1.209,1.209,0,0,1,4.183,2c0-.1,0-.2,0-.279C4.184.2,4.3-.014,5.542,0c.549.006.922.006,1.165.005V0l.206,0,.205,0V.006c.244,0,.616,0,1.165-.005C9.525-.014,9.641.2,9.641,1.723c0,.1,0,.217,0,.351a1.209,1.209,0,0,1,.022,1.707c.038,2.325.108,5.584.126,6.272A7.635,7.635,0,0,0,11.769,15.9c2.223,2.237,1.936,5.837,1.978,8.192-.316.017-.853.024-1.494.024a6.843,6.843,0,0,1,1.492,4.275V45.215A6.872,6.872,0,1,1,0,45.215Z" transform="translate(44.634 49.083) rotate(-76)" fill="#482c25"/>
        <path id="Caminho_22957" data-name="Caminho 22957" d="M.2-.631l10.5.019-.085,14.006H.2Z" transform="translate(71.132 42.156) rotate(14)" fill="#d5ae37"/>
        <path id="Caminho_22932" data-name="Caminho 22932" d="M10.072.468c6.7,0,14.709-3.308,14.878,7.664.451,6.968-6.055,4.762-10.076,4.762C8.174,12.895,0,11.5,0,7.433S3.371.468,10.072.468Z" transform="translate(89.644 56.235) rotate(153)" fill="#aa6734"/>
        <g id="Grupo_5315" data-name="Grupo 5315" transform="matrix(0.927, 0.375, -0.375, 0.927, 52.846, 0)">
          <path id="Caminho_22934" data-name="Caminho 22934" d="M14.849,16.5c8.346,0,17.2,3.049,17.414-7.436.562-6.659,3.408-7.041.485-7.872C28.447-.032,17.008.008,12,.008,3.655.008,0,5.176,0,9.063S6.5,16.5,14.849,16.5Z" transform="matrix(-0.946, 0.326, -0.326, -0.946, 38.364, 15.99)" fill="#bc7845"/>
          <path id="Caminho_22933" data-name="Caminho 22933" d="M12.649,13.757c8.415,0,17.686,6.889,17.9-4.943C31.114,1.3,24,3.476,18.951,3.476,11.475.138,0,1.86,0,6.247S4.234,13.757,12.649,13.757Z" transform="translate(27.894 36.838) rotate(-105)" fill="#bc7845"/>
        </g>
        <path id="Caminho_22937" data-name="Caminho 22937" d="M4.776,8.536c2.638,0,6.987-3.731,6.987-6.088S7.413,0,4.776,0A4.543,4.543,0,0,0,0,4.268,4.543,4.543,0,0,0,4.776,8.536Z" transform="translate(90.054 3.259) rotate(46)" fill="#bc7845"/>
        <g id="Grupo_5316" data-name="Grupo 5316" transform="translate(86.883 10.994) rotate(-2)">
          <path id="Caminho_22939" data-name="Caminho 22939" d="M12.543.454c7.05,0,14.533-3.359,14.71,8.19.475,7.334,3.639,8.753,1.17,9.668-3.633,1.347-14.309-2.067-18.538-2.067C2.835,16.245,0,12.926,0,8.644S5.493.454,12.543.454Z" transform="translate(17.254 34.697) rotate(-126)" fill="#bc7845"/>
          <path id="Caminho_22940" data-name="Caminho 22940" d="M7.447,13.269c4.954,0,10.876,3.441,11-7.971C18.781-1.95,13.97.345,11,.345,6.043.345,0,1.794,0,6.025S2.493,13.269,7.447,13.269Z" transform="matrix(-0.191, -0.982, 0.982, -0.191, 16.616, 38.337)" fill="#bc7845"/>
        </g>
        <path id="Caminho_22946" data-name="Caminho 22946" d="M3.377,8.552a1.159,1.159,0,0,1-.589-.124L.4,7.21A1.348,1.348,0,0,1-.259,5.8L.28,1.917A1.6,1.6,0,0,1,1.437.579L4.8-.218A1.175,1.175,0,0,1,6.1.329l1.6,2.68a.687.687,0,0,1-.19.872.521.521,0,0,1-.786-.124l-1.6-2.68A.168.168,0,0,0,4.943,1l-3.367.8a.229.229,0,0,0-.165.191L.872,5.871a.192.192,0,0,0,.094.2L3.352,7.29a.189.189,0,0,0,.229-.058L5.291,5.191A.222.222,0,0,0,5.3,4.913L4.2,3.561a.174.174,0,0,0-.243-.023l-1.027.75a.233.233,0,0,0-.087.247l.111.392a.171.171,0,0,0,.236.115l.761-.318a.512.512,0,0,1,.708.35.7.7,0,0,1-.391.808L3.5,6.2a1.2,1.2,0,0,1-1.649-.806L1.743,5a1.634,1.634,0,0,1,.611-1.729l1.027-.75a1.215,1.215,0,0,1,1.7.16L6.188,4.036A1.55,1.55,0,0,1,6.1,5.982L4.391,8.023A1.433,1.433,0,0,1,3.377,8.552Zm0,0" transform="translate(18.326 28.432) rotate(-24)" fill="#482c25"/>
        <path id="Caminho_22947" data-name="Caminho 22947" d="M3.739.168A1.14,1.14,0,0,0,3.155.3L.788,1.534A1.377,1.377,0,0,0,.126,2.955l.516,3.9A1.579,1.579,0,0,0,1.781,8.2l3.33.782A1.167,1.167,0,0,0,6.4,8.422L8,5.718a.7.7,0,0,0-.184-.876.513.513,0,0,0-.779.13l-1.6,2.7a.167.167,0,0,1-.184.079l-3.33-.782a.226.226,0,0,1-.163-.191l-.516-3.9a.2.2,0,0,1,.094-.2L3.708,1.437a.184.184,0,0,1,.226.057L5.619,3.536a.225.225,0,0,1,.011.28l-1.1,1.367a.171.171,0,0,1-.241.025L3.273,4.459a.234.234,0,0,1-.085-.248l.111-.4A.171.171,0,0,1,3.533,3.7l.752.315a.51.51,0,0,0,.7-.356A.7.7,0,0,0,4.6,2.847l-.752-.315a1.193,1.193,0,0,0-1.636.82L2.1,3.747a1.644,1.644,0,0,0,.6,1.736l1.014.749A1.193,1.193,0,0,0,5.4,6.06L6.5,4.694a1.577,1.577,0,0,0-.077-1.957L4.74.694A1.4,1.4,0,0,0,3.739.168Zm0,0" transform="matrix(0.94, 0.342, -0.342, 0.94, 21.169, 40.358)" fill="#482c25"/>
        <rect id="Retângulo_17358" data-name="Retângulo 17358" width="2.234" height="7.052" rx="1" transform="translate(15.255 44.451) rotate(-22)" fill="#bc7845"/>
        <rect id="Retângulo_17357" data-name="Retângulo 17357" width="2.234" height="8.052" rx="1.117" transform="matrix(0.921, 0.391, -0.391, 0.921, 18.65, 24.284)" fill="#db9966"/>
        <g id="Grupo_5320" data-name="Grupo 5320">
          <path id="Caminho_22948" data-name="Caminho 22948" d="M1.152.3V5.877L-.865,3.869Z" transform="translate(40.322 41.15)" fill="#a81d1d"/>
          <g id="Grupo_5313" data-name="Grupo 5313" transform="translate(30.03 39.474) rotate(-5)">
            <path id="Caminho_22919" data-name="Caminho 22919" d="M1.838.472C2.959.523,3.468,2.2,4.074,3.756a2.663,2.663,0,0,1-2.6,1.81C1.134,5.5.738,5.212.738,3.779S.717.421,1.838.472Z" transform="matrix(0.966, 0.259, -0.259, 0.966, 1.316, 2.452)" fill="#482c25"/>
            <path id="Caminho_22952" data-name="Caminho 22952" d="M-.048,1.16C.3,1.206.19.653.231.253S.185-.216.077-.212-.231-.022-.31.423-.4,1.115-.048,1.16Z" transform="matrix(-0.788, 0.616, -0.616, -0.788, 3.419, 4.894)" fill="#d9b2a8"/>
            <path id="Caminho_22920" data-name="Caminho 22920" d="M1.049,4.826c2.986,1.135,4.479-.084,4.927-.633C6.36,2.4,6.869,2.036,8.708.648" transform="translate(2.923 2.049)" fill="none" stroke="#482c25" stroke-linecap="round" stroke-width="1"/>
            <path id="Caminho_22921" data-name="Caminho 22921" d="M2.039-4.273a15.74,15.74,0,0,0-.982,5.9A3.1,3.1,0,0,1-.679-.279" transform="translate(9.652 6.971)" fill="none" stroke="#482c25" stroke-linecap="round" stroke-width="1"/>
          </g>
        </g>
      </g>
    </g>
    <path id="Caminho_22953" data-name="Caminho 22953" d="M4.826-.4c2.292-.182,3.289.157,4.521,1.647C7.432-.594.977.913-1.821,7.13.128,2.162,2.533-.217,4.826-.4Z" transform="translate(1687.95 13138.662) rotate(163)" fill="#aa6734"/>
  </g>
</svg>
