<svg xmlns="http://www.w3.org/2000/svg" xmlns:xlink="http://www.w3.org/1999/xlink" width="84.665" height="69.718" viewBox="0 0 84.665 69.718"><defs><radialGradient id="a" cx="2130.046" cy="864.511" r="0.376" gradientTransform="translate(-3423.655 -0.006) scale(2.759 1)" gradientUnits="objectBoundingBox"><stop offset="0" stop-color="#ffe548"/><stop offset="0.392" stop-color="#ffe346"/><stop offset="0.609" stop-color="#ffdb3e"/><stop offset="0.783" stop-color="#ffcf30"/><stop offset="0.933" stop-color="#ffbd1c"/><stop offset="1" stop-color="#ffb211"/></radialGradient><radialGradient id="b" cx="54.72" cy="-825.507" r="0.5" gradientTransform="translate(808.26 -706.577) rotate(-90)" xlink:href="#a"/><radialGradient id="c" cx="-98.054" cy="-630.956" r="0.5" gradientTransform="translate(489.514 -668.501) rotate(-90)" xlink:href="#a"/><radialGradient id="d" cx="37.352" cy="14.654" r="0.483" gradientTransform="translate(-2.484 0) scale(1.072 1)" xlink:href="#a"/><radialGradient id="e" cx="1314.766" cy="497.924" r="0.393" gradientTransform="translate(-1269.53 0) scale(2.055 1)" xlink:href="#a"/><radialGradient id="f" cx="947.493" cy="227.219" r="0.401" gradientTransform="translate(-754.412 -0.002) scale(1.87 1)" xlink:href="#a"/><radialGradient id="g" cx="-104.719" cy="-19.645" r="0.566" gradientTransform="translate(-19.187 0) scale(0.8 1)" xlink:href="#a"/></defs><path d="M50.569,185.377a26.847,26.847,0,0,1-.586,5.6q-4.273-.114-8.539-.551-5.024-.514-10.034-1.467a4.527,4.527,0,0,0-.639-.076A26.842,26.842,0,0,0,31,185.377a26.9,26.9,0,0,0-17.1-25.052,26.9,26.9,0,0,1,36.674,25.052Zm0,0" transform="translate(-11.597 -132.281)" fill="#82cfe7"/><path d="M288.692,185.377a27.018,27.018,0,0,0,.227,3.5,4.686,4.686,0,0,0-1.064.08q-5.2.99-10.415,1.5-3.865.383-7.736.5A26.906,26.906,0,0,1,305.8,160.325a26.9,26.9,0,0,0-17.1,25.052Zm0,0" transform="translate(-224.619 -132.281)" fill="#61abff"/><path d="M128.743,206.867c.007.2.01.393.01.591a17.051,17.051,0,0,1-11.906,16.235q.079,1.021.079,2.063c0,.192,0,.385-.007.577A19.619,19.619,0,0,0,131.177,209.7a27.241,27.241,0,0,0-2.434-2.832Zm0,0" transform="translate(-97.525 -172.659)" fill="#ff4b3e"/><path d="M110.63,175.039a16.994,16.994,0,0,1-6.728,13.444,26.2,26.2,0,0,1,.936,2.478,19.572,19.572,0,0,0,8.288-14.53A25.859,25.859,0,0,0,110.63,175.039Zm0,0" transform="translate(-86.721 -146.094)" fill="#ff4b3e"/><path d="M76.6,160.383a16.969,16.969,0,0,1-4.232,8.017q.886.926,1.678,1.935a19.522,19.522,0,0,0,5.058-9.443q-1.231-.314-2.5-.509Zm0,0" transform="translate(-60.404 -133.862)" fill="#ff4b3e"/><path d="M317.925,193.059a1.5,1.5,0,0,0-.454,1.076,1.587,1.587,0,0,0,.022.253,1.566,1.566,0,0,1,.022.266,1.5,1.5,0,0,1-2.2,1.318,1.5,1.5,0,0,0-1.4,0,1.5,1.5,0,0,1-2.179-1.583,1.6,1.6,0,0,0,.023-.253,1.5,1.5,0,0,0-.455-1.076,1.6,1.6,0,0,1-.185-.216,27.13,27.13,0,0,1,4.251-3.8,1.46,1.46,0,0,1,.589.635,1.5,1.5,0,0,0,1.132.82,1.5,1.5,0,0,1,1.287,1.5A1.477,1.477,0,0,1,317.925,193.059Zm0,0" transform="translate(-259.674 -157.782)" fill="#d94035"/><path d="M411.619,189.5a26.95,26.95,0,0,0-4.783,5.407,1.489,1.489,0,0,1-.712-1.544,1.408,1.408,0,0,0,.023-.255,1.5,1.5,0,0,0-.453-1.074,1.476,1.476,0,0,1-.456-1.067,1.5,1.5,0,0,1,1.288-1.495,1.472,1.472,0,0,0,.665-.271,1.512,1.512,0,0,0,.464-.55,1.5,1.5,0,0,1,2.693,0,1.5,1.5,0,0,0,1.132.82A1.414,1.414,0,0,1,411.619,189.5Zm0,0" transform="translate(-338.227 -156.759)" fill="#d94035"/><path d="M279.093,258.037a1.5,1.5,0,0,0-.454,1.076,1.625,1.625,0,0,0,.022.254,1.561,1.561,0,0,1,.022.266,1.5,1.5,0,0,1-2.2,1.317,1.506,1.506,0,0,0-1.4,0,1.5,1.5,0,0,1-2.178-1.583,1.614,1.614,0,0,0,.022-.254c0-.041,0-.081-.005-.122a26.432,26.432,0,0,1,1.207-3.918,1.508,1.508,0,0,0,.306-.419,1.5,1.5,0,0,1,2.694,0,1.5,1.5,0,0,0,1.13.822,1.5,1.5,0,0,1,1.288,1.494A1.474,1.474,0,0,1,279.093,258.037Zm0,0" transform="translate(-227.76 -211.845)" fill="#d94035"/><path d="M369.158,255.317a26.6,26.6,0,0,0-1.467,5.554,1.508,1.508,0,0,0-1.222.078,1.5,1.5,0,0,1-2.178-1.583,1.618,1.618,0,0,0,.022-.254,1.5,1.5,0,0,0-.454-1.076,1.475,1.475,0,0,1-.456-1.067,1.5,1.5,0,0,1,1.288-1.494,1.5,1.5,0,0,0,1.13-.822,1.5,1.5,0,0,1,2.694,0A1.5,1.5,0,0,0,369.158,255.317Zm0,0" transform="translate(-303.31 -211.845)" fill="#d94035"/><path d="M317.014,323.9a1.475,1.475,0,0,1-.455,1.065,1.554,1.554,0,0,0-.233.293h0q-2.6.376-5.2.632l-.735.07a1.508,1.508,0,0,0-.453-.994,1.475,1.475,0,0,1-.456-1.067,1.5,1.5,0,0,1,1.288-1.494,1.525,1.525,0,0,0,.667-.271,1.5,1.5,0,0,0,.463-.55,1.5,1.5,0,0,1,2.692,0,1.5,1.5,0,0,0,1.132.82A1.5,1.5,0,0,1,317.014,323.9Zm0,0" transform="translate(-258.308 -267.71)" fill="#d94035"/><path d="M191.073,58.928c.153,7.529,1.647,14.569,4.159,19.46q-3.865.383-7.736.5-3.35.107-6.7.012-4.273-.114-8.539-.551a43.61,43.61,0,0,1,31.55-54.143c-9.3,7.392-13,21.78-12.735,34.72Zm0,0" transform="translate(-142.411 -20.205)" fill="#ff4b3e"/><path d="M173.046,260.1a3.574,3.574,0,0,1-2.33,3.351,43.828,43.828,0,0,1,.087-6.668A3.57,3.57,0,0,1,173.046,260.1Zm0,0" transform="translate(-142.414 -214.32)" fill="url(#a)"/><path d="M219.151,313.348a3.574,3.574,0,1,1-3.574-3.574A3.574,3.574,0,0,1,219.151,313.348Zm0,0" transform="translate(-176.946 -258.549)" fill="url(#b)"/><path d="M219.151,201.171a3.574,3.574,0,1,1-3.574-3.573A3.574,3.574,0,0,1,219.151,201.171Zm0,0" transform="translate(-176.946 -164.923)" fill="url(#c)"/><path d="M226.882,94.671a3.572,3.572,0,0,1-5.616,2.932,43.342,43.342,0,0,1,4.644-5.381A3.555,3.555,0,0,1,226.882,94.671Zm0,0" transform="translate(-184.677 -76.972)" fill="url(#d)"/><path d="M284.333,263.391a3.573,3.573,0,0,1-.99-6.938A54.862,54.862,0,0,0,284.333,263.391Zm0,0" transform="translate(-234.497 -214.045)" fill="url(#e)"/><path d="M284.7,143.056a57.6,57.6,0,0,0-1.188,6.994,3.574,3.574,0,0,1,1.018-7c.057,0,.114,0,.17.005Zm0,0" transform="translate(-234.498 -119.396)" fill="url(#f)"/><path d="M290.664,43.708a3.574,3.574,0,0,1-6.64,1.834q1.284-.888,2.648-1.695,1.744-1.029,3.542-1.879A3.547,3.547,0,0,1,290.664,43.708Zm0,0" transform="translate(-237.057 -35.029)" fill="url(#g)"/><path d="M190.527,58.928c.153,7.529,1.647,14.569,4.159,19.46q-3.865.383-7.737.5c-2.233.071-3.885.063-6.118,0-1.648-8.365-2.675-15.041.54-26.21s16.174-24.937,21.89-28.473c-9.3,7.392-13,21.78-12.735,34.72Zm0,0" transform="translate(-141.866 -20.205)" fill="#d9d9d9" style="mix-blend-mode:multiply;isolation:isolate"/><path d="M133.419,341.438a128.61,128.61,0,0,1-48.862,0,4.609,4.609,0,0,1-3.6-5.606q.472-1.968.945-3.936a4.623,4.623,0,0,1,5.372-3.452,115.274,115.274,0,0,0,43.425,0,4.623,4.623,0,0,1,5.372,3.452q.473,1.968.945,3.936a4.609,4.609,0,0,1-3.6,5.606Zm0,0" transform="translate(-67.463 -274.062)" fill="#e9c72a"/><path d="M136.306,355.641a4.569,4.569,0,0,1-2.887,1.873,128.584,128.584,0,0,1-48.862,0,4.569,4.569,0,0,1-2.887-1.873l-.711,2.96a4.609,4.609,0,0,0,3.6,5.606,128.609,128.609,0,0,0,48.862,0,4.609,4.609,0,0,0,3.6-5.606Q136.662,357.122,136.306,355.641Zm0,0" transform="translate(-67.463 -296.832)" fill="#ff4b3e"/><path d="M9.36,145.672a4.68,4.68,0,1,1-4.68-4.68A4.68,4.68,0,0,1,9.36,145.672Zm0,0" transform="translate(0 -117.677)" fill="#e9c72a"/><path d="M345.891,4.68A4.68,4.68,0,1,1,341.211,0,4.68,4.68,0,0,1,345.891,4.68Zm0,0" transform="translate(-280.882)" fill="#e9c72a"/><path d="M345.811,4.524a4.68,4.68,0,0,1-4.68,4.68A4.861,4.861,0,0,1,337.8,7.809c2.875.419,7.425-2.417,7.537-5.343A4.323,4.323,0,0,1,345.811,4.524Zm0,0" transform="translate(-280.802 0.156)" fill="#d9d9d9" style="mix-blend-mode:multiply;isolation:isolate"/><path d="M464.758,146.188a4.68,4.68,0,1,1-4.68-4.68A4.68,4.68,0,0,1,464.758,146.188Zm0,0" transform="translate(-380.093 -118.108)" fill="#c6a924"/><path d="M131.956,341.438a134.067,134.067,0,0,1-27.4,2.289c-.664-.526-.586-6.055.178-6.642a9.061,9.061,0,0,1-.189-6.6,118.844,118.844,0,0,0,24.691-2.043,4.623,4.623,0,0,1,5.372,3.452q.473,1.968.945,3.936a4.609,4.609,0,0,1-3.6,5.606Zm0,0" transform="translate(-66.001 -274.062)" fill="#d9d9d9" style="mix-blend-mode:multiply;isolation:isolate"/></svg>