<svg id="taQuenteAqui" xmlns="http://www.w3.org/2000/svg" width="385.144" height="564" viewBox="0 0 385.144 564">
  <g id="Grupo_2" data-name="Grupo 2" transform="translate(0 0)">
    <path id="Caminho_1" data-name="Caminho 1" d="M172.047,194.4C117.177,103.479,10.892,7.277,10.892,7.277S80.42,162.835,41.822,258.314s-32.51,159.9-22.478,247.373C22.912,545.068,12.46,570.9,12.46,570.9s107.785,11.506,182.949-100.225C235.023,390.432,226.917,285.311,172.047,194.4Z" transform="translate(165.003 -7.277)" fill="#e55000"/>
    <path id="Caminho_2" data-name="Caminho 2" d="M37.209,265.949c1.09-1.442,2.451-3.187,4.263-5.471,19.1-30.08,69.428-73.347,104.42-135.717s36.346-117.9,36.346-117.9,39.177,89.254,47.384,169.683c6.65,49.282-21.117,90.172-33.959,131.051-4.686,41.461-3.98,106.657,4.412,184.864,2.638,24.581-8.616,48.52,0,76.156.621,1.993-98,16.465-169.563-88.959C-12.562,393.932,8.211,304.285,37.209,265.949Z" transform="translate(-5.896 -6.437)" fill="#ed6c00"/>
  </g>
  <g id="Grupo_1" data-name="Grupo 1" transform="translate(88.743 249.675)">
    <path id="Caminho_1-2" data-name="Caminho 1" d="M30.871,110.756C61.412,60.151,123.854,4.024,123.854,4.024S118.322,38.561,99.9,97.206c-3.51,31.058-2.935,32.6,2.312,77.209,4.45,37.841,17.106,58.716,11.523,107.4-1.986,21.92-6.569,36.245-6.569,36.245s-52.111,4.654-91.943-54.027C-6.115,223.137.33,161.36,30.871,110.756Z" transform="translate(-2.715 -4.024)" fill="#ffec57"/>
    <path id="Caminho_3" data-name="Caminho 3" d="M83.832,120.215C22.342,50.866,37.46,9.164,37.46,9.164S-5,113.4,13.419,172.042c3.436,30.405,25.292,87.459,5.393,151.286,8.046-1.149,55.087,6.2,94.918-52.481C124.979,253.366,145.322,189.564,83.832,120.215Z" transform="translate(83.628 -9.003)" fill="#fad734"/>
  </g>
</svg>
