<svg width="96" height="70" viewBox="0 0 96 70" fill="none" xmlns="http://www.w3.org/2000/svg">
<g filter="url(#filter0_i_1_26)">
<path d="M64 59.1062C64 60.0707 63.6737 60.7799 63.0213 61.2338C62.3972 61.6594 61.5035 61.9289 60.3404 62.0424C59.1773 62.1558 57.8014 62.2126 56.2128 62.2126C56.1844 63.8012 56.0851 65.1771 55.9149 66.3402C55.773 67.5033 55.461 68.4111 54.9787 69.0636C54.5248 69.6877 53.8298 69.9998 52.8936 69.9998C51.9291 69.9998 51.2198 69.6877 50.7659 69.0636C50.3404 68.4395 50.0709 67.5459 49.9574 66.3828C49.844 65.2197 49.7872 63.8296 49.7872 62.2126C48.1702 62.2126 46.7801 62.1558 45.617 62.0424C44.4539 61.9005 43.5603 61.6168 42.9362 61.1913C42.312 60.7374 42 60.0424 42 59.1062C42 57.7161 42.6808 56.8367 44.0425 56.4679C45.4326 56.0707 47.3475 55.8438 49.7872 55.787C49.7872 54.17 49.844 52.7799 49.9574 51.6168C50.0993 50.4537 50.383 49.5601 50.8085 48.936C51.2624 48.3119 51.9574 47.9998 52.8936 47.9998C54.2837 47.9998 55.1631 48.6948 55.5319 50.0849C55.9291 51.475 56.156 53.3757 56.2128 55.787C57.8014 55.8154 59.1773 55.9147 60.3404 56.0849C61.5035 56.2268 62.3972 56.5388 63.0213 57.0211C63.6737 57.475 64 58.17 64 59.1062Z" fill="white"/>
<path d="M86.1928 9.625C88.6869 11.065 90.2351 12.8835 90.8372 15.0806C91.4394 17.2776 91.3995 19.6267 90.7176 22.1277C90.0706 24.5685 89.1029 26.9045 87.8146 29.1359C86.7005 31.0657 85.3257 33.2069 83.6903 35.5594C82.0549 37.912 80.2722 40.2198 78.3422 42.4826C76.4989 44.7152 74.6129 46.722 72.6839 48.5031C71.5542 49.6198 70.0955 50.4663 68.308 51.0424C66.5204 51.6185 64.6654 51.3516 62.7428 50.2416C60.8202 49.1316 59.6615 47.6585 59.2667 45.8224C58.8718 43.9863 58.8496 42.2848 59.1999 40.7181C59.7778 38.157 60.5468 35.5052 61.5066 32.7626C62.5533 29.9898 63.6865 27.307 64.9062 24.7144C66.1259 22.1219 67.2928 19.8607 68.407 17.9309C69.7472 15.7295 71.3125 13.7385 73.1027 11.9577C74.9277 10.1167 76.9161 8.89264 79.0679 8.28559C81.2717 7.70853 83.6467 8.155 86.1928 9.625Z" fill="white"/>
<path d="M44.846 41.4244C45.566 42.6714 45.7883 44.1365 45.513 45.8197C45.2377 47.5029 44.2057 48.8954 42.4171 49.9974C40.6804 51.0693 38.9734 51.2928 37.2961 50.6676C35.5889 49.9906 34.1247 49.0665 32.9171 47.4974C32.0839 46.4148 28.7353 41.9203 28.4171 40.6491C28.0989 39.3779 27.4311 36.892 27.7305 35.6106C28.1097 33.8675 28.564 32.2542 29.0932 30.7709C29.6744 29.2575 29.68 28.0072 29.11 27.02C28.33 25.669 27.2385 25.3985 25.8355 26.2085C25.212 26.5685 24.7864 27.0913 24.5587 27.777C24.3831 28.4327 24.4752 29.0723 24.8352 29.6958C25.8252 31.4106 25.9227 33.2595 25.1278 35.2427C24.3549 37.1439 22.9032 38.7095 20.7727 39.9395C18.6943 41.1395 16.5446 41.376 14.3236 40.6491C12.1545 39.8922 10.26 38.1108 8.64 35.3049C7.65 33.5902 7.07569 31.6355 6.91708 29.4407C6.72846 27.194 6.99358 24.8932 7.71242 22.5383C8.45323 20.1014 9.63385 17.8263 11.2543 15.713C12.8966 13.5177 17.6929 10.125 17.6929 10.125C17.6929 10.125 24.712 7.04246 28.1501 6.99738C31.6401 6.92231 34.7876 7.6339 37.5925 9.13217C40.3675 10.5785 42.5049 12.6007 44.0049 15.1987C45.4749 17.7449 46.2742 20.0893 46.4028 22.2321C46.5534 24.2929 46.3311 26.1879 45.736 27.9171C45.1109 29.5944 44.3808 31.0898 43.5457 32.4033C42.7106 33.7169 42.0123 34.8475 41.4509 35.7951C40.9115 36.6608 44.546 40.9047 44.846 41.4244Z" fill="white"/>
</g>
<defs>
<filter id="filter0_i_1_26" x="6.85827" y="6.99201" width="84.4025" height="63.0078" filterUnits="userSpaceOnUse" color-interpolation-filters="sRGB">
<feFlood flood-opacity="0" result="BackgroundImageFix"/>
<feBlend mode="normal" in="SourceGraphic" in2="BackgroundImageFix" result="shape"/>
<feColorMatrix in="SourceAlpha" type="matrix" values="0 0 0 0 0 0 0 0 0 0 0 0 0 0 0 0 0 0 127 0" result="hardAlpha"/>
<feOffset dx="-2"/>
<feComposite in2="hardAlpha" operator="arithmetic" k2="-1" k3="1"/>
<feColorMatrix type="matrix" values="0 0 0 0 0 0 0 0 0 0 0 0 0 0 0 0 0 0 0.25 0"/>
<feBlend mode="normal" in2="shape" result="effect1_innerShadow_1_26"/>
</filter>
</defs>
</svg>
