<svg xmlns="http://www.w3.org/2000/svg" width="81.188" height="76.871" viewBox="0 0 81.188 76.871">
  <g id="Grupo_5411" data-name="Grupo 5411" transform="translate(-659.043 -17193.809)">
    <g id="Grupo_5403" data-name="Grupo 5403" transform="translate(718.946 17204.555)">
      <path id="Caminho_193" data-name="Caminho 193" d="M327.66,116.057a17.964,17.964,0,0,0,12.272-11.371A18.4,18.4,0,0,0,338.887,90.4a1.045,1.045,0,0,0-1.933.233,18.441,18.441,0,0,1-4.656,8.413,19.09,19.09,0,0,1-10.816,5.379c-5.461.825,2.43,12.61,6.178,11.63Zm0,0" transform="translate(-319.615 -89.851)" fill="#6a187e"/>
      <path id="Caminho_194" data-name="Caminho 194" d="M353.872,90.4a1.045,1.045,0,0,0-1.933.233c-.016.067-.036.133-.053.2a18.676,18.676,0,0,1-.353,10.686,17.963,17.963,0,0,1-12.272,11.372l-.018,0a.847.847,0,0,0-.4,1.443c1.334,1.241,2.735,2,3.8,1.717a17.964,17.964,0,0,0,12.272-11.371A18.4,18.4,0,0,0,353.872,90.4Zm0,0" transform="translate(-334.6 -89.851)" fill="#5a0865"/>
    </g>
    <g id="Grupo_5404" data-name="Grupo 5404" transform="translate(667.781 17204.555)">
      <path id="Caminho_193-2" data-name="Caminho 193" d="M332.856,116.057a17.964,17.964,0,0,1-12.272-11.371A18.4,18.4,0,0,1,321.629,90.4a1.045,1.045,0,0,1,1.933.233,18.441,18.441,0,0,0,4.656,8.413,19.09,19.09,0,0,0,10.816,5.379c5.461.825-2.43,12.61-6.178,11.63Zm0,0" transform="translate(-319.615 -89.851)" fill="#6a187e"/>
      <path id="Caminho_194-2" data-name="Caminho 194" d="M340.589,90.4a1.045,1.045,0,0,1,1.933.233c.016.067.036.133.053.2a18.676,18.676,0,0,0,.353,10.686A17.963,17.963,0,0,0,355.2,112.892l.018,0a.847.847,0,0,1,.4,1.443c-1.334,1.241-2.735,2-3.8,1.717a17.964,17.964,0,0,1-12.272-11.371A18.4,18.4,0,0,1,340.589,90.4Zm0,0" transform="translate(-338.575 -89.851)" fill="#5a0865"/>
    </g>
    <g id="_599502" data-name="599502" transform="translate(676.254 17193.809)">
      <path id="Caminho_264" data-name="Caminho 264" d="M86.31,60.18c1.588-1.734,4.058-4.075,5.108,1.21a12.249,12.249,0,0,0,1.907,4.3A26.668,26.668,0,0,1,98.6,55.024a22.112,22.112,0,0,0,4.277-11.845,1.219,1.219,0,0,1,2.036-.8,34.52,34.52,0,0,1,11.267,25.574,17.605,17.605,0,0,0,4.614-7.208,1.611,1.611,0,0,1,2.864-.387c.141.214.272.429.39.637,5.54,9.8,8.2,21.69,5.741,32.757C125.672,112.281,98.425,117.463,84,105.814,69.887,94.418,74.373,73.206,86.31,60.18Z" transform="translate(-75.223 -42.026)" fill="#de0974"/>
      <g id="Grupo_812" data-name="Grupo 812" transform="translate(27.565 0)">
        <path id="Caminho_265" data-name="Caminho 265" d="M88.052,195.452c2.435-11.185-.143-23.2-5.552-33.144.137-.33.268-.671.391-1.026a1.611,1.611,0,0,1,2.864-.387c.141.214.272.429.389.637,5.54,9.8,8.2,21.69,5.741,32.757-1.879,8.453-8.57,14.127-16.661,16.7C81.537,207.926,86.48,202.684,88.052,195.452Z" transform="translate(-64.883 -142.566)" fill="#ac0056"/>
        <path id="Caminho_266" data-name="Caminho 266" d="M182.374,67.6a35.729,35.729,0,0,0-9.541-23.681c.041-.347.071-.658.091-.894a1.2,1.2,0,0,1,1.99-.855,34.531,34.531,0,0,1,11.313,25.616l-1.3,1.008a1.747,1.747,0,0,1-2.116.02A1.588,1.588,0,0,1,182.374,67.6Z" transform="translate(-172.833 -41.861)" fill="#ac0056"/>
      </g>
      <path id="Caminho_267" data-name="Caminho 267" d="M132.121,178.275c1.173-1.281,3-3.01,3.773.894a9.049,9.049,0,0,0,1.409,3.174,19.7,19.7,0,0,1,3.9-7.877,16.333,16.333,0,0,0,3.159-8.749.9.9,0,0,1,1.5-.594,25.5,25.5,0,0,1,8.322,18.89,13,13,0,0,0,3.408-5.324,1.19,1.19,0,0,1,2.116-.286c.1.158.2.317.288.471,4.092,7.235,6.06,16.021,4.241,24.195-3.042,13.689-23.168,17.516-33.822,8.912C119.99,203.564,123.3,187.9,132.121,178.275Z" transform="translate(-116.679 -146.573)" fill="#ac0056"/>
      <path id="Caminho_269" data-name="Caminho 269" d="M173.935,286.089c.794-.867,2.029-2.038,2.554.605a6.123,6.123,0,0,0,.954,2.149,13.332,13.332,0,0,1,2.638-5.332,11.06,11.06,0,0,0,2.139-5.923.609.609,0,0,1,1.018-.4,17.26,17.26,0,0,1,5.634,12.787,8.8,8.8,0,0,0,2.307-3.6.806.806,0,0,1,1.432-.194c.071.107.136.215.195.319a23.51,23.51,0,0,1,2.871,16.379c-2.059,9.267-15.683,11.857-22.9,6.033a11.6,11.6,0,0,1-4.312-7.914C168,296.284,169.812,290.588,173.935,286.089Z" transform="translate(-154.517 -242.019)" fill="#e22a87"/>
    </g>
    <g id="_688736" data-name="688736" transform="matrix(0.998, -0.07, 0.07, 0.998, 658.805, 17246.66)">
      <path id="Caminho_284" data-name="Caminho 284" d="M49.785,20.661a24.238,24.238,0,0,1-12.553-3.934c-3.576-2.171-6.744-3.973-9.552-5.463a45.239,45.239,0,0,1-8.035,4.02c-5.114,1.9-9.58,2.238-12.916.981C1.13,14.153-.379,10.154.076,7.115.649,3.281,4.19.3,8.5.025,12.775-.247,19.015,1.7,27.411,5.942c.392.226,4.544,2.4,4.544,2.4s4.955,2.806,7.662,4.45c11.668,7.084,19.5,1.2,24.024-4.98l3.712,2.713c-2.166,2.962-5.813,6.906-10.891,8.872A18.356,18.356,0,0,1,49.785,20.661ZM9.329,4.6c-.191,0-.371.006-.542.016-2.445.156-3.945,1.718-4.164,3.182-.249,1.661,1.11,3.18,3.727,4.166,2.85,1.074,8.034.277,14.418-3.169C15.825,5.513,11.733,4.6,9.329,4.6Z" transform="translate(0 3.418)" fill="#6a187e"/>
      <path id="Caminho_285" data-name="Caminho 285" d="M0,9.636a28.452,28.452,0,0,0,11.3,3.209,18.35,18.35,0,0,0,6.677-1.259C23.05,9.619,26.7,5.676,28.863,2.713L25.151,0S14.441,14.832,0,9.636Z" transform="translate(38.489 11.234)" fill="#5a0865"/>
      <path id="Caminho_290" data-name="Caminho 290" d="M14.084,17.658a2.3,2.3,0,0,1-1-.23L1.3,11.721A2.3,2.3,0,0,1,1.008,7.75L11.843.4a2.3,2.3,0,0,1,3.584,1.735l.951,13.06a2.3,2.3,0,0,1-2.293,2.466Z" transform="translate(57.229 0)" fill="#5a0865"/>
    </g>
  </g>
</svg>
